<?xml version="1.0" encoding="UTF-8" standalone="no"?>
<svg
   width="1131.27"
   height="974.46997"
   overflow="hidden"
   version="1.1"
   id="svg29"
   sodipodi:docname="submodule-flow-diagram.svg"
   inkscape:version="1.1.2 (b8e25be833, 2022-02-05)"
   xmlns:inkscape="http://www.inkscape.org/namespaces/inkscape"
   xmlns:sodipodi="http://sodipodi.sourceforge.net/DTD/sodipodi-0.dtd"
   xmlns="http://www.w3.org/2000/svg"
   xmlns:svg="http://www.w3.org/2000/svg">
  <sodipodi:namedview
     id="namedview31"
     pagecolor="#ffffff"
     bordercolor="#666666"
     borderopacity="1.0"
     inkscape:pageshadow="2"
     inkscape:pageopacity="0.0"
     inkscape:pagecheckerboard="0"
     showgrid="false"
     inkscape:zoom="0.8225641"
     inkscape:cx="566.5212"
     inkscape:cy="488.10786"
     inkscape:window-width="1920"
     inkscape:window-height="991"
     inkscape:window-x="-9"
     inkscape:window-y="-9"
     inkscape:window-maximized="1"
     inkscape:current-layer="svg29" />
  <defs
     id="defs5">
    <clipPath
       id="clip0">
      <rect
         x="1676"
         y="792"
         width="1132"
         height="975"
         id="rect2" />
    </clipPath>
  </defs>
  <g
     clip-path="url(#clip0)"
     transform="translate(-1676,-792)"
     id="g27">
    <path
       id="rect7"
       style="fill:none;stroke:#000000;stroke-width:9.16667;stroke-miterlimit:8"
       d="m 1680.5,796.5 h 1040 v 208 h -1040 z" />
    <g
       aria-label="创建消息队列"
       transform="translate(1870,937)"
       id="text9"
       style="font-size:110px;font-family:DengXian, DengXian_MSFontService, sans-serif">
      <path
         d="M 4.0820312,-46.083984 Q 25.405273,-61.391602 35.878906,-85.561523 l 7.788086,2.846679 q 1.450195,0.429688 1.450195,1.020508 0,0.537109 -1.342773,1.181641 -1.557617,0.751953 -2.631836,2.631836 12.62207,8.701172 27.392578,19.711914 -2.631836,2.524414 -4.833984,6.445312 -13.105469,-12.084961 -26.533203,-21.000976 -13.75,20.034179 -25.19043,31.044922 -3.8134765,-2.739258 -7.8955078,-4.404297 z M 21.21582,-47.53418 q 6.391602,0.698243 10.795899,0.698243 h 19.121093 q 0.214844,0 7.734375,-0.590821 -0.913085,10.903321 -1.665039,17.939453 -0.644531,6.713868 -2.202148,8.808594 -1.235352,2.30957 -5.854492,3.867188 -3.276367,1.18164 -9.990235,1.503906 -0.751953,-4.511719 -2.954101,-7.573242 2.202148,0.322265 4.189453,0.322265 1.503906,0 3.491211,-0.214843 4.189453,-0.429688 5.532226,-2.094727 1.396485,-1.396484 1.826172,-6.391602 0,-0.322265 0.698243,-10.097656 H 27.822266 v 39.7998048 q -0.107422,3.4375 1.557617,4.296875 1.396484,1.1279297 6.928711,1.3427734 3.007812,0.1074219 6.230468,0.1074219 3.222657,0 6.606446,-0.1074219 10.795898,0.4296875 11.708984,-11.5478515 3.491211,3.4912109 7.036133,4.8339844 Q 63.378906,10.205078 51.347656,9.9902344 45.27832,10.3125 41.035156,10.3125 q -4.404297,0 -8.701172,-0.3222656 Q 21.430664,9.5605469 21.914062,0.53710937 V -37.597656 q 0,-3.4375 -0.698242,-9.936524 z m 58.97461,36.63086 h -7.465821 q 0.644532,-7.036133 0.644532,-9.775391 v -40.283203 q 0,-3.383789 -0.644532,-10.419922 l 8.432618,1.557617 q 1.127929,0.214844 1.235351,0.53711 0.107422,0.429687 -0.859375,1.289062 -1.987305,1.879883 -1.987305,6.713867 v 40.605469 q 0,2.202149 0.644532,9.775391 z m -0.322266,26.318359 q -0.644531,-3.222656 -3.4375,-9.0234374 5.263672,0.859375 8.754883,0.859375 9.023437,0 8.59375,0.9130859 -0.375977,0.9667969 -0.375977,-5.3173828 0,-0.3222656 -0.107422,-0.9667969 V -73.691406 q 0,-2.739258 -0.698242,-10.473633 l 8.164064,1.450195 q 1.66504,0.214844 1.66504,0.644532 0.10742,0.429687 -1.12793,1.557617 -1.772463,1.987304 -1.879885,5.800781 V 3.7597656 q 0.214844,6.2304688 -3.383789,8.2177734 -3.330078,2.202149 -16.166992,3.4375 z"
         id="path34" />
      <path
         d="m 115.69336,10.688477 q 12.03125,-6.1767583 17.72461,-16.9726567 -7.03613,-9.0234373 -11.97754,-17.2412113 l 5.37109,-3.222656 q 3.4375,7.250977 9.72168,14.555664 4.13575,-11.655273 5.15625,-24.65332 h -9.45312 q -3.54492,0 -6.49903,1.181641 -0.32226,-1.289063 -1.0205,-3.38379 -0.64453,-2.202148 -1.07422,-3.4375 3.06152,0 4.61914,-3.276367 5.37109,-11.547851 9.56055,-22.236328 h -11.97754 q -2.09473,0 -7.68067,0.805664 v -6.928711 q 3.06153,0.644532 7.78809,0.644532 h 12.2998 q 3.22266,-0.107422 8.70117,-0.644532 l -13.85742,32.011719 h 8.27149 q 4.40429,0.107422 7.78808,-0.698242 -1.87988,19.49707 -8.11035,35.4492186 11.38672,14.1796875 44.2041,14.1796875 12.89063,0 29.16504,-2.2021485 -1.87988,4.4042969 -2.30957,8.9160154 -10.15137,0.590821 -18.6914,0.590821 -17.1875,0 -28.09082,-2.363282 -16.70411,-3.2763669 -27.28516,-13.4277341 -5.15625,7.8417969 -14.93164,17.0800781 -2.73926,-3.330078 -7.41211,-4.726562 z m 32.81738,-63.59375 v -6.391602 q 2.73926,0.751953 7.25098,0.644531 h 19.33594 v -9.882812 h -15.46875 q -3.22266,0 -7.94922,0.644531 v -6.337891 q 3.22265,0.644532 8.05664,0.644532 h 15.36133 v -4.726563 q 0,-4.61914 -0.64454,-7.143555 l 8.05665,1.074219 q 1.18164,0.107422 1.18164,0.698242 0,0.53711 -1.07422,1.611329 -1.23535,1.450195 -1.34278,3.652343 v 4.833985 h 15.30762 q 3.70606,0 7.78809,-0.644532 -0.64453,2.954102 -0.64453,5.478516 v 10.097656 h 3.49121 q 3.4375,0 7.41211,-0.644531 v 6.391602 q -3.22266,-0.644532 -7.14356,-0.644532 h -3.75976 v 8.110352 q 0,3.867187 0.64453,7.573242 -4.61914,-0.644531 -8.00293,-0.644531 h -15.09278 v 9.667969 h 15.73731 q 3.86719,0 8.16406,-0.644532 v 6.391602 q -3.65234,-0.644531 -8.05664,-0.644531 h -15.84473 v 9.023437 h 20.78614 q 4.9414,0 7.73437,-0.698242 v 6.3916015 q -4.88769,-0.6445313 -7.73437,-0.6445313 h -20.78614 v 5.1562501 q 0.32227,5.15624995 0.64454,7.5732421 h -7.57325 q 0.53711,-4.6191406 0.75196,-7.3583984 v -5.3710938 h -20.08789 q -3.97461,-0.1074218 -6.49903,0.6445313 v -6.3916015 q 2.09473,0.698242 6.60645,0.698242 h 19.98047 v -9.023437 h -15.95215 q -3.81348,0 -7.14356,0.644531 v -6.391602 q 3.97461,0.644532 7.14356,0.644532 h 15.95215 v -9.667969 h -14.60938 q -3.06152,0 -6.82129,0.644531 v -6.445312 q 2.09473,0.751953 6.28418,0.751953 0.53711,0 0.75195,0 h 14.39454 v -9.990235 h -19.76563 q -2.41699,0 -6.82129,0.644532 z m 32.76367,9.345703 h 16.27442 v -9.990235 h -16.27442 z m 0,-24.975586 v 9.882812 h 16.27442 v -9.882812 z"
         id="path36" />
      <path
         d="M 226.49902,-49.628906 229.99023,-55 q 9.23829,6.069336 16.97266,11.870117 l -3.65234,6.069336 q -7.46582,-6.499023 -16.81153,-12.568359 z m 3.59864,56.9873044 q 12.13867,-15.5224609 20.57129,-39.1552734 2.20214,3.4375 4.72656,6.28418 -9.88281,19.2285153 -18.36914,38.725586 z m 4.18945,-82.1777344 3.97461,-4.619141 q 8.91601,6.28418 16.27441,12.353516 l -3.86718,5.15625 q -7.78809,-6.928711 -16.38184,-12.890625 z m 29.27246,1.020508 5.15625,-3.4375 q 6.3916,7.519531 11.33301,14.555664 l -4.94141,4.02832 q -5.37109,-8.110351 -11.54785,-15.146484 z m 1.66504,20.678711 q 5.04883,0.644531 9.88281,0.644531 h 13.53516 v -21.000976 q 0,-4.404297 -0.64453,-11.333008 l 8.21777,1.342773 q 1.23535,0.107422 1.34277,0.53711 0.10743,0.322265 -1.0205,1.396484 -2.09473,1.987305 -1.9336,8.056641 v 21.000976 h 13.2666 q 4.61914,0 10.47364,-0.644531 -0.64453,5.585937 -0.64453,9.667969 V 6.4990234 q 0.21484,5.9082036 -3.00782,7.7880856 -2.9541,2.309571 -13.15918,3.4375 -1.23535,-4.511718 -3.22265,-8.271484 4.458,0.3759766 7.19726,0.3759766 2.79297,0 3.81348,-0.3759766 2.41699,-0.5371094 2.20215,-4.0820313 V -8.59375 H 271.83105 V 8.7011719 q 0,4.5117191 0.64454,9.4531251 h -7.25098 q 0.64453,-4.833984 0.64453,-9.4531251 V -43.237305 q 0,-4.404297 -0.64453,-9.882812 z m 6.60644,39.047851 h 39.69239 v -13.75 h -39.69239 z m 0,-32.924804 v 13.642578 h 39.69239 V -46.99707 Z m 42.32422,-31.206055 6.71387,4.511719 q 0.85938,0.537109 0.75195,0.859375 -0.21484,0.429687 -1.5039,0.537109 -2.41699,0.59082 -4.51172,3.115235 -3.86719,4.833984 -9.8291,11.977539 -2.30957,-2.631836 -4.83399,-4.511719 7.41211,-6.606445 13.21289,-16.489258 z"
         id="path38" />
      <path
         d="m 334.72656,5.6933594 q 9.77539,-4.8339844 16.05957,-20.4101564 l 7.03614,3.598633 q 0.69824,0.322266 0.69824,0.698242 0,0.161133 -0.16114,0.4296876 -0.10742,0.2148438 -1.18164,0.5371094 -1.34277,0.2148437 -3.4375,3.7060547 -5.04882,7.9492187 -12.19238,16.5429683 -2.73926,-2.9003902 -6.82129,-5.1025386 z m 43.55957,-90.9326174 8.59375,2.631836 q 1.28907,0.429688 1.28907,0.751953 0,0.429688 -1.18165,0.913086 -2.20214,0.966797 -3.54492,3.706055 -1.39648,3.115234 -2.9541,6.069336 h 27.5 q 4.4043,0 9.3457,-0.644531 -0.64453,4.296875 -0.64453,8.754882 v 31.689454 q 0,4.61914 0.64453,9.023437 -4.72656,-0.644531 -9.88281,-0.644531 H 364.8584 q -4.94141,0 -9.88281,0.644531 0.64453,-4.404297 0.64453,-8.916016 v -31.420898 q 0,-4.511719 -0.64453,-9.130859 5.26367,0.644531 9.23828,0.644531 h 9.77539 q 2.84668,-5.74707 4.29687,-14.072266 z m -16.48926,48.178711 v 8.59375 h 48.71583 v -8.59375 z m 0,-14.287109 v 8.754883 h 48.71583 v -8.754883 z m 48.71583,-5.532227 v -8.808594 h -48.71583 v 8.808594 z m -5.69336,52.0458986 q 3.81347,2.631836 8.00293,3.86718752 -2.63184,9.45312498 -5.3711,11.76269488 -2.63183,2.739258 -10.7959,3.276368 -5.15625,0.322265 -11.87011,0.322265 -6.60645,0 -10.25879,-0.429687 -5.69336,-0.53711 -7.46582,-2.84668 -1.98731,-2.0947265 -1.87989,-7.9492187 v -7.5732422 q 0,-4.7265625 -0.64453,-11.1181641 l 8.05664,1.342773 q 1.28907,0.214844 1.28907,0.751954 0.10742,0.537109 -0.9668,1.772461 -1.55762,1.557617 -1.55762,7.2509761 v 6.8212891 q -0.0537,0.4833984 -0.0537,1.0205078 0,4.5654297 5.42481,4.3505859 5.53222,0.4833985 11.01074,0.4833985 5.53222,0 7.94922,-0.3759766 5.80078,-0.7519531 7.25097,-3.0615234 1.66504,-1.8798828 1.87989,-9.6679688 z m -25.67383,-10.6884766 5.10254,-4.404297 q 7.03613,6.606445 13.2666,13.3203127 l -5.3711,4.9414062 q -5.04882,-7.4658203 -12.99804,-13.8574219 z m 32.01172,5.048828 5.10254,-4.941406 q 8.54003,9.0234374 17.13378,19.3896484 l -5.80078,4.8339844 Q 420.39551,-1.8798828 411.15723,-10.473633 Z"
         id="path40" />
      <path
         d="m 451.7627,-79.438477 q 5.37109,0.805665 10.15136,0.698243 h 17.34864 q 4.83398,0 10.68847,-0.698243 -2.52441,4.511719 -5.04883,9.829102 -5.96191,12.084961 -11.44043,21.860352 14.7168,12.783203 14.39454,25.620117 -0.42969,13.535156 -21.32325,17.1874998 -1.34277,-5.7470708 -3.97461,-9.3457028 2.79297,0.322265 5.15625,0.322265 12.99805,0 13.10547,-9.77539 -0.53711,-12.675782 -15.62988,-22.128907 7.57324,-11.762695 13.96484,-27.607421 H 458.36914 V 5.6933594 q 0,3.6523437 0.64453,9.3994136 h -7.25097 q 0.64453,-5.2099605 0.64453,-9.1308589 V -69.179687 q 0,-4.189454 -0.64453,-10.25879 z m 55.10742,-5.371093 9.13086,0.966797 q 1.55761,0.107421 1.55761,0.698242 0.10743,0.537109 -1.34277,1.611328 -1.18164,0.913086 -1.50391,2.792969 -0.37597,1.611328 -0.37597,7.250976 0,8.59375 0,16.59668 5.53222,39.370117 32.49511,61.6064452 -6.06933,1.4501953 -9.50683,4.7265628 -17.56348,-20.03418 -26.04981,-49.84375 -5.9082,29.7021481 -33.4082,52.905273 -2.90039,-2.739258 -7.51953,-5.5859374 33.46191,-19.6044926 36.73828,-62.4658206 0.59082,-9.023437 0.59082,-18.745117 -0.16113,-9.345703 -0.80566,-12.514648 z"
         id="path42" />
      <path
         d="m 605.53711,-72.402344 h -19.33594 q -1.55762,7.304688 -4.08203,16.328125 h 18.26172 q 3.75976,0.107422 8.48633,-0.698242 -1.23535,56.23535163 -46.08399,74.067383 -2.57812,-4.082031 -6.49902,-7.089844 25.51269,-7.2509764 35.71777,-26.049805 -8.00293,-8.110351 -16.91894,-14.824218 l 4.9414,-5.532227 q 7.03614,5.639649 15.52246,13.642578 4.83399,-8.808593 6.39161,-28.037109 h -21.91407 q -7.68066,16.381836 -19.55078,27.177734 -3.65234,-3.222656 -7.08984,-5.317383 20.35644,-11.171875 25.67383,-43.666992 h -12.99805 q -3.97461,-0.107422 -8.70117,0.698242 v -6.821289 q 4.61914,0.751954 8.48633,0.644532 h 39.47754 q 5.85449,0.107422 9.3457,-0.644532 v 6.821289 q -3.27637,-0.805664 -9.13086,-0.698242 z m 22.55859,61.069336 h -7.46582 q 0.75196,-4.404297 0.64453,-9.238281 v -41.357422 q 0.10743,-4.296875 -0.64453,-10.581055 l 8.00293,1.12793 q 1.12793,0.214844 1.23535,0.751953 -0.10742,0.644531 -1.23535,1.181641 -1.18164,0.59082 -1.18164,6.552734 v 42.216797 q -0.10742,4.726563 0.64453,9.345703 z m 0.10742,27.070313 q -0.96679,-5.639649 -3.27636,-9.4531253 6.01562,0.9130859 9.45312,0.9130859 2.25586,0 3.38379,-0.3759765 3.22266,-0.6445313 3.00781,-4.6191407 V -75.356445 q 0,-4.619141 -0.69824,-10.419922 l 9.02344,1.074219 q 0.80566,0.107421 0.91309,0.644531 0,0.698242 -0.80567,1.235351 -2.20215,1.396485 -2.09473,6.499024 V 4.296875 q 0.10743,6.28418 -3.81347,8.486328 -3.97461,2.524414 -15.09278,2.954102 z"
         id="path44" />
    </g>
    <path
       d="m 2205.08,1004.5 v 107 h -9.16 v -107 z m 9.17,102.42 -13.75,27.5 -13.75,-27.5 z"
       id="path11" />
    <path
       id="rect13"
       style="fill:none;stroke:#000000;stroke-width:9.16667;stroke-miterlimit:8"
       d="m 1680.5,1134.5 h 1040 v 207 h -1040 z" />
    <g
       aria-label="等待"
       transform="translate(2090,1275)"
       id="text15"
       style="font-size:110px;font-family:DengXian, DengXian_MSFontService, sans-serif">
      <path
         d="M 50.917969,-35.771484 V -46.513672 H 29.594727 q -3.4375,0 -8.59375,0.644531 v -6.821289 q 4.833984,0.644532 8.59375,0.644532 h 21.323242 v -1.503907 q 0.107422,-2.792968 -0.644532,-7.197265 l 8.701172,1.127929 q 0.966797,0.214844 1.074219,0.644532 0.107422,0.429687 -0.751953,1.235351 -2.094727,1.879883 -2.202148,4.189453 v 1.503907 h 23.203125 q 2.954101,0.107421 8.378906,-0.644532 v 6.821289 q -5.102539,-0.751953 -8.378906,-0.644531 H 57.094727 v 10.742188 h 39.692382 q 3.544921,0 8.164061,-0.644532 v 6.821289 q -4.9414,-0.751953 -8.164061,-0.644531 H 14.394531 q -2.954101,-0.107422 -8.4326169,0.751953 v -6.821289 q 5.1562499,0.53711 8.4326169,0.53711 z m 39.262695,21.054687 H 77.880859 V 6.7138672 q 0.214844,5.9619138 -2.739257,7.2509768 -2.202149,1.665039 -14.555665,2.846679 -0.537109,-4.404296 -2.846679,-8.6474605 5.961914,0.6445313 8.808594,0.6445313 1.611328,0 2.631835,-0.2148438 2.631836,-0.3222656 2.524415,-3.0078125 V -14.716797 H 21.21582 q -3.276367,0 -8.540039,0.644531 v -6.713867 q 5.585938,0.53711 8.540039,0.53711 h 50.488282 v -0.966797 q 0,-2.631836 -0.644532,-6.821289 l 8.701172,1.074218 q 0.966797,0.107422 1.074219,0.698243 0,0.429687 -0.859375,1.289062 -2.202149,1.879883 -2.094727,3.974609 v 0.751954 h 12.299805 q 3.330078,0 8.486328,-0.644532 v 6.821289 q -5.15625,-0.644531 -8.486328,-0.644531 z m -59.941406,5.5859376 5.048828,-4.7265626 q 7.304687,6.9287111 14.448242,14.716797 L 44.311523,6.0693359 Q 37.490234,-2.7392578 30.239258,-9.1308594 Z M 5.0488281,-58.061523 Q 18.798828,-68.75 25.405273,-87.763672 l 8.056641,2.631836 q 1.074219,0.429688 1.074219,0.859375 -0.107422,0.429688 -1.342774,1.020508 -1.503906,0.537109 -2.524414,2.094726 -1.18164,1.933594 -3.168945,4.833985 h 18.90625 q 2.739258,0.107422 8.164062,-0.698242 v 6.821289 q -5.424804,-0.751953 -8.164062,-0.644532 h -9.130859 q 2.90039,5.048829 5.74707,11.333008 l -5.854492,2.524414 q -3.061524,-7.788086 -6.499024,-13.857422 h -6.123047 q -4.726562,7.250977 -12.03125,16.381836 -3.1689449,-2.30957 -7.4658199,-3.598632 z m 61.9287109,-29.916993 7.626953,2.524414 q 1.181641,0.429688 1.181641,0.859375 0,0.429688 -1.181641,1.020508 -1.879883,0.751953 -2.90039,2.416992 -0.214844,0.322266 -0.644532,1.074219 -1.074218,1.665039 -1.879883,2.84668 h 25.996094 q 1.503906,0 7.143559,-0.429688 v 6.821289 q -4.995121,-0.859375 -7.143559,-0.859375 H 78.740234 q 4.511719,5.263672 8.916016,11.333008 l -5.693359,3.813477 Q 77.021484,-64.667969 71.59668,-71.704102 h -6.015625 q -3.222657,4.404297 -7.304688,9.345704 -2.954101,-1.342774 -7.895508,-2.631836 12.407227,-8.916016 16.59668,-22.988282 z"
         id="path48" />
      <path
         d="m 139.70215,-57.631836 7.46582,5.048828 q 0.69824,0.429688 0.53711,0.644531 -0.10742,0.322266 -0.9668,0.698243 -3.16894,1.18164 -4.83398,4.135742 -1.66504,2.792969 -2.9541,4.995117 V 6.0693359 q 0.10742,3.7060547 0.64453,10.0976561 h -7.46582 Q 132.66602,10.3125 132.77344,5.9619141 V -33.999023 q -6.06934,7.734375 -11.44043,12.890625 -3.4375,-3.222657 -7.25098,-4.726563 14.50195,-8.164062 25.62012,-31.796875 z m -24.33106,-2.739258 q 18.1543,-10.151367 26.10352,-25.673828 l 7.78809,5.317383 q 0.91308,0.537109 0.75195,0.859375 -0.10742,0.429687 -1.28906,0.751953 -2.84668,0.59082 -5.26368,3.544922 -10.58105,11.655273 -21.59179,20.463867 -3.06153,-3.4375 -6.49903,-5.263672 z m 43.23731,12.192383 h 20.46387 v -15.307617 h -12.83692 q -3.4375,0 -9.72168,0.698242 v -6.821289 q 6.49903,0.644531 9.72168,0.644531 h 12.83692 v -7.358398 q 0,-3.115235 -0.64454,-10.581055 l 8.70118,1.342774 q 1.07421,0.107421 1.18164,0.644531 0.10742,0.644531 -0.75196,1.342773 -2.52441,1.71875 -2.52441,7.895508 v 6.713867 h 13.05176 q 3.22265,-0.107422 8.91601,-0.644531 v 6.821289 q -5.80078,-0.698242 -8.91601,-0.698242 h -13.05176 v 15.307617 h 21.32324 q 3.27637,-0.107422 8.8086,-0.644531 v 6.821289 q -5.96192,-0.698242 -8.8086,-0.698242 H 158.6084 q -2.9541,0 -9.45313,0.698242 v -6.821289 q 5.63965,0.537109 9.45313,0.644531 z m 4.51172,19.926758 H 192.5 v -0.913086 q 0,-3.168945 -0.64453,-10.3125 l 8.91601,1.289062 q 1.07422,0.214844 1.18164,0.805665 -0.10742,0.751953 -1.18164,1.503906 -1.9873,1.665039 -2.20214,7.626953 h 5.26367 q 2.63183,0 8.80859,-0.59082 v 6.713867 q -6.06933,-0.644531 -8.80859,-0.644531 h -5.15625 V 6.4990234 q 0.21484,5.0488286 -2.79297,6.7138676 -2.41699,1.611328 -12.94434,2.954101 -0.64453,-4.296875 -3.65234,-8.8085936 4.4043,0.8056641 7.25098,0.8056641 6.82128,0 6.44531,0.8056641 -0.37598,0.805664 -0.37598,-4.1894532 0,-0.3759765 -0.10742,-0.9130859 V -22.773437 h -29.37988 q -2.63184,0 -7.57325,0.537109 -0.91308,0.107422 -1.12792,0.107422 v -6.713867 q 5.31738,0.59082 8.70117,0.59082 z m -2.63184,15.46875 4.94141,-4.511719 q 7.14355,6.928711 12.46093,12.6757814 l -5.31738,4.72656247 Q 166.77246,-6.9287109 160.48828,-12.783203 Z"
         id="path50" />
    </g>
    <path
       id="rect17"
       style="fill:none;stroke:#000000;stroke-width:9.16667;stroke-miterlimit:8"
       d="m 1680.5,1471.5 h 1040 v 208 h -1040 z" />
    <g
       aria-label="处理队列中的消息"
       transform="translate(1760,1612)"
       id="text19"
       style="font-size:110px;font-family:DengXian, DengXian_MSFontService, sans-serif">
      <path
         d="m 26.962891,-82.929687 9.345703,2.202148 q 0.966797,0.214844 0.966797,0.751953 -0.107422,0.429688 -1.181641,1.235352 -1.342773,0.751953 -2.416992,4.135742 -0.322266,1.020508 -0.913086,3.115234 -1.611328,5.800781 -2.416992,8.110352 h 15.952148 q 2.094727,0 8.701172,-0.53711 -4.296875,34.643555 -13.857422,51.616211 7.250977,9.5605472 25.083008,13.3740237 9.775391,1.9873047 20.571289,1.9873047 9.453125,0 19.228515,-1.5039062 -2.41699,4.0283203 -3.49121,9.0234378 Q 49.306641,10.90332 37.597656,-6.6064453 28.574219,6.3916016 13.857422,16.05957 11.655273,12.514648 7.0361328,9.9902344 22.558594,4.9414062 33.193359,-12.084961 q -7.788086,-13.427734 -11.655273,-27.5 3.4375,-0.322266 7.036133,-1.987305 0.913086,11.010743 8.271484,22.88086 8.271484,-18.261719 10.366211,-39.155274 H 28.574219 q -6.660157,18.154297 -15.46875,31.689453 -4.1894534,-1.450195 -8.3789065,-1.987304 19.7119145,-22.88086 22.2363285,-54.785156 z M 72.402344,-5.15625 h -7.519532 q 0.698243,-6.176758 0.698243,-9.829102 v -59.02832 q 0,-3.759765 -0.698243,-11.225586 l 8.701172,1.289063 q 1.12793,0.107422 1.235352,0.805664 0.214844,0.644531 -0.698242,1.18164 -2.309571,1.665039 -2.416992,7.949219 v 17.241211 q 14.985351,8.164063 31.689448,21.21582 l -3.974605,6.821289 Q 87.226562,-39.799805 71.704102,-49.306641 v 34.321289 q 0,3.544922 0.698242,9.829102 z"
         id="path54" />
      <path
         d="m 116.92871,-36.416016 v -6.821289 q 4.94141,0.53711 8.48633,0.644532 h 6.01562 v -25.727539 h -8.11035 q -3.33008,0.107421 -8.3789,0.644531 v -6.821289 q 4.51172,0.59082 8.3789,0.698242 h 20.78614 q 3.75976,-0.107422 8.3789,-0.698242 v 6.821289 q -4.61914,-0.53711 -8.3789,-0.644531 h -6.49903 v 25.727539 h 4.18945 q 3.59864,-0.107422 8.00293,-0.644532 v 6.821289 q -4.24316,-0.537109 -8.00293,-0.644531 h -4.18945 v 30.2392579 q 6.71387,-2.3095703 13.10547,-5.3710939 -0.10742,1.181641 -0.10742,2.148438 0,2.4707028 0.53711,4.9951169 -20.46387,6.9287109 -33.46192,12.5146484 L 113.97461,0 q 7.3584,-1.0742187 17.45605,-4.7265625 V -37.060547 h -6.01562 q -3.33008,0.107422 -8.48633,0.644531 z m 29.91699,47.53418 V 4.296875 q 5.3711,0.5371094 9.34571,0.6445312 h 23.79394 V -11.762695 H 164.0332 q -3.86718,0.107422 -8.91601,0.644531 v -6.821289 q 5.15625,0.537109 8.91601,0.644531 h 15.95215 v -14.93164 h -12.46094 q -4.29687,0.107421 -9.77539,0.644531 0.53711,-5.048828 0.64453,-8.916016 v -31.313476 q -0.10742,-4.082032 -0.64453,-9.614258 5.58594,0.59082 9.77539,0.698242 h 31.36719 q 4.29688,-0.107422 9.77539,-0.698242 -0.53711,5.209961 -0.64453,9.238281 v 31.259766 q 0.10742,4.404297 0.64453,9.345703 -5.26367,-0.53711 -9.56054,-0.644531 h -12.78321 v 14.93164 h 15.2002 q 4.51172,-0.107422 8.70117,-0.644531 v 6.821289 q -4.51172,-0.537109 -8.70117,-0.644531 h -15.2002 V 4.9414062 h 20.67871 q 4.61914,-0.1074218 9.02344,-0.6445312 v 6.821289 q -4.72656,-0.537109 -9.02344,-0.644531 h -50.81054 q -3.97461,0.107422 -9.34571,0.644531 z m 17.72461,-64.560547 v 15.737305 h 15.41504 v -15.737305 z m 0,-21.80664 v 16.274414 h 15.41504 v -16.274414 z m 21.75293,21.80664 v 15.737305 h 15.52246 v -15.737305 z m 0,-21.80664 v 16.274414 h 15.52246 v -16.274414 z"
         id="path56" />
      <path
         d="m 231.7627,-79.438477 q 5.37109,0.805665 10.15136,0.698243 h 17.34864 q 4.83398,0 10.68847,-0.698243 -2.52441,4.511719 -5.04883,9.829102 -5.96191,12.084961 -11.44043,21.860352 14.7168,12.783203 14.39454,25.620117 -0.42969,13.535156 -21.32325,17.1874998 -1.34277,-5.7470708 -3.97461,-9.3457028 2.79297,0.322265 5.15625,0.322265 12.99805,0 13.10547,-9.77539 -0.53711,-12.675782 -15.62988,-22.128907 7.57324,-11.762695 13.96484,-27.607421 H 238.36914 V 5.6933594 q 0,3.6523437 0.64453,9.3994136 h -7.25097 q 0.64453,-5.2099605 0.64453,-9.1308589 V -69.179687 q 0,-4.189454 -0.64453,-10.25879 z m 55.10742,-5.371093 9.13086,0.966797 q 1.55761,0.107421 1.55761,0.698242 0.10743,0.537109 -1.34277,1.611328 -1.18164,0.913086 -1.50391,2.792969 -0.37597,1.611328 -0.37597,7.250976 0,8.59375 0,16.59668 5.53222,39.370117 32.49511,61.6064452 -6.06933,1.4501953 -9.50683,4.7265628 -17.56348,-20.03418 -26.04981,-49.84375 -5.9082,29.7021481 -33.4082,52.905273 -2.90039,-2.739258 -7.51953,-5.5859374 33.46191,-19.6044926 36.73828,-62.4658206 0.59082,-9.023437 0.59082,-18.745117 -0.16113,-9.345703 -0.80566,-12.514648 z"
         id="path58" />
      <path
         d="m 385.53711,-72.402344 h -19.33594 q -1.55762,7.304688 -4.08203,16.328125 h 18.26172 q 3.75976,0.107422 8.48633,-0.698242 -1.23535,56.23535163 -46.08399,74.067383 -2.57812,-4.082031 -6.49902,-7.089844 25.51269,-7.2509764 35.71777,-26.049805 -8.00293,-8.110351 -16.91894,-14.824218 l 4.9414,-5.532227 q 7.03614,5.639649 15.52246,13.642578 4.83399,-8.808593 6.39161,-28.037109 h -21.91407 q -7.68066,16.381836 -19.55078,27.177734 -3.65234,-3.222656 -7.08984,-5.317383 20.35644,-11.171875 25.67383,-43.666992 h -12.99805 q -3.97461,-0.107422 -8.70117,0.698242 v -6.821289 q 4.61914,0.751954 8.48633,0.644532 h 39.47754 q 5.85449,0.107422 9.3457,-0.644532 v 6.821289 q -3.27637,-0.805664 -9.13086,-0.698242 z m 22.55859,61.069336 h -7.46582 q 0.75196,-4.404297 0.64453,-9.238281 v -41.357422 q 0.10743,-4.296875 -0.64453,-10.581055 l 8.00293,1.12793 q 1.12793,0.214844 1.23535,0.751953 -0.10742,0.644531 -1.23535,1.181641 -1.18164,0.59082 -1.18164,6.552734 v 42.216797 q -0.10742,4.726563 0.64453,9.345703 z m 0.10742,27.070313 q -0.96679,-5.639649 -3.27636,-9.4531253 6.01562,0.9130859 9.45312,0.9130859 2.25586,0 3.38379,-0.3759765 3.22266,-0.6445313 3.00781,-4.6191407 V -75.356445 q 0,-4.619141 -0.69824,-10.419922 l 9.02344,1.074219 q 0.80566,0.107421 0.91309,0.644531 0,0.698242 -0.80567,1.235351 -2.20215,1.396485 -2.09473,6.499024 V 4.296875 q 0.10743,6.28418 -3.81347,8.486328 -3.97461,2.524414 -15.09278,2.954102 z"
         id="path60" />
      <path
         d="m 498.27637,-76.000977 v 12.192383 h 29.27246 q 3.54492,0.107422 7.84179,-0.644531 -0.80566,3.867188 -0.69824,7.46582 v 33.032227 q -0.10742,3.491211 0.69824,6.767578 h -7.51953 q 0.80567,-3.276367 0.69825,-5.800781 H 498.27637 V 7.1435547 q -0.10742,4.6191403 0.69824,8.8085933 h -7.73438 q 0.80567,-3.974609 0.69825,-8.5937496 V -22.988281 h -29.917 q -0.10742,3.759765 0.64454,7.573242 h -7.46582 q 0.75195,-3.920898 0.64453,-8.00293 v -33.784179 q 0.10742,-3.168946 -0.64453,-7.250977 4.61914,0.751953 7.8955,0.644531 h 28.84278 v -12.514648 q 0.10742,-4.404297 -0.69825,-9.238281 l 8.37891,1.074218 q 1.23535,0.107422 1.34277,0.53711 0.10743,0.214843 -1.0205,1.235351 -1.87989,1.074219 -1.66504,6.713867 z m -6.33789,17.939454 h -29.917 v 29.326171 h 29.917 z m 6.33789,0 v 29.326171 h 30.29297 v -29.326171 z"
         id="path62" />
      <path
         d="m 599.41406,-46.083984 q 13.85742,-13.212891 18.79883,-39.370118 l 7.89551,2.739258 q 1.55762,0.53711 1.34277,0.966797 0,0.59082 -1.77246,1.879883 -1.55762,1.020508 -2.52441,3.867187 -2.73926,7.788086 -5.3711,14.072266 h 21.96778 q 3.97461,0 9.23828,-0.644531 -0.64453,6.928711 -0.64453,11.333008 l -0.53711,50.91796837 Q 647.91504,8.59375 643.2959,11.762695 q -4.4043,3.544922 -18.36914,4.941407 -0.4834,-4.028321 -3.33008,-8.4326176 3.9209,0.3759765 7.03613,0.3759765 5.69336,0 8.48633,-1.2890625 4.29688,-1.8798828 4.29688,-8.00292965 l 0.85937,-55.80566375 h -26.69434 q -3.9746,7.519531 -8.27148,14.125976 -4.08203,-2.363281 -7.89551,-3.759765 z m 12.19239,11.762695 5.26367,-4.404297 q 8.59375,8.916016 17.29492,20.141602 l -6.06934,4.61914 Q 620.84473,-25.19043 611.60645,-34.321289 Z M 569.01367,13.75 h -7.03613 q 0.69824,-6.7138672 0.69824,-9.8828125 V -51.132812 q 0,-4.082032 -0.69824,-10.903321 4.29687,0.644531 8.70117,0.644531 4.61914,-12.08496 6.49902,-23.417968 l 7.78809,2.094726 q 1.66504,0.429688 1.66504,0.966797 0.10742,0.698242 -1.34277,1.557617 -2.09473,1.342774 -3.06153,4.404297 -2.63183,7.358399 -5.37109,14.394531 h 11.97754 q 4.72656,0 9.99023,-0.644531 -0.64453,6.606446 -0.64453,10.903321 V 1.3427734 q 0,3.5986328 0.64453,9.1308596 h -7.3584 q 0.53711,-3.4375002 0.64453,-6.2841799 h -23.74023 q 0,3.7060547 0.64453,9.5605469 z m -0.42969,-39.692383 V -1.3427734 H 592.2168 V -25.942383 Z m 0,-29.916992 v 24.599609 h 23.63282 v -24.599609 z"
         id="path64" />
      <path
         d="M 666.49902,-49.628906 669.99023,-55 q 9.23829,6.069336 16.97266,11.870117 l -3.65234,6.069336 q -7.46582,-6.499023 -16.81153,-12.568359 z m 3.59864,56.9873044 q 12.13867,-15.5224609 20.57129,-39.1552734 2.20214,3.4375 4.72656,6.28418 -9.88281,19.2285153 -18.36914,38.725586 z m 4.18945,-82.1777344 3.97461,-4.619141 q 8.91601,6.28418 16.27441,12.353516 l -3.86718,5.15625 q -7.78809,-6.928711 -16.38184,-12.890625 z m 29.27246,1.020508 5.15625,-3.4375 q 6.3916,7.519531 11.33301,14.555664 l -4.94141,4.02832 q -5.37109,-8.110351 -11.54785,-15.146484 z m 1.66504,20.678711 q 5.04883,0.644531 9.88281,0.644531 h 13.53516 v -21.000976 q 0,-4.404297 -0.64453,-11.333008 l 8.21777,1.342773 q 1.23535,0.107422 1.34277,0.53711 0.10743,0.322265 -1.0205,1.396484 -2.09473,1.987305 -1.9336,8.056641 v 21.000976 h 13.2666 q 4.61914,0 10.47364,-0.644531 -0.64453,5.585937 -0.64453,9.667969 V 6.4990234 q 0.21484,5.9082036 -3.00782,7.7880856 -2.9541,2.309571 -13.15918,3.4375 -1.23535,-4.511718 -3.22265,-8.271484 4.458,0.3759766 7.19726,0.3759766 2.79297,0 3.81348,-0.3759766 2.41699,-0.5371094 2.20215,-4.0820313 V -8.59375 H 711.83105 V 8.7011719 q 0,4.5117191 0.64454,9.4531251 h -7.25098 q 0.64453,-4.833984 0.64453,-9.4531251 V -43.237305 q 0,-4.404297 -0.64453,-9.882812 z m 6.60644,39.047851 h 39.69239 v -13.75 h -39.69239 z m 0,-32.924804 v 13.642578 h 39.69239 V -46.99707 Z m 42.32422,-31.206055 6.71387,4.511719 q 0.85938,0.537109 0.75195,0.859375 -0.21484,0.429687 -1.5039,0.537109 -2.41699,0.59082 -4.51172,3.115235 -3.86719,4.833984 -9.8291,11.977539 -2.30957,-2.631836 -4.83399,-4.511719 7.41211,-6.606445 13.21289,-16.489258 z"
         id="path66" />
      <path
         d="m 774.72656,5.6933594 q 9.77539,-4.8339844 16.05957,-20.4101564 l 7.03614,3.598633 q 0.69824,0.322266 0.69824,0.698242 0,0.161133 -0.16114,0.4296876 -0.10742,0.2148438 -1.18164,0.5371094 -1.34277,0.2148437 -3.4375,3.7060547 -5.04882,7.9492187 -12.19238,16.5429683 -2.73926,-2.9003902 -6.82129,-5.1025386 z m 43.55957,-90.9326174 8.59375,2.631836 q 1.28907,0.429688 1.28907,0.751953 0,0.429688 -1.18165,0.913086 -2.20214,0.966797 -3.54492,3.706055 -1.39648,3.115234 -2.9541,6.069336 h 27.5 q 4.4043,0 9.3457,-0.644531 -0.64453,4.296875 -0.64453,8.754882 v 31.689454 q 0,4.61914 0.64453,9.023437 -4.72656,-0.644531 -9.88281,-0.644531 H 804.8584 q -4.94141,0 -9.88281,0.644531 0.64453,-4.404297 0.64453,-8.916016 v -31.420898 q 0,-4.511719 -0.64453,-9.130859 5.26367,0.644531 9.23828,0.644531 h 9.77539 q 2.84668,-5.74707 4.29687,-14.072266 z m -16.48926,48.178711 v 8.59375 h 48.71583 v -8.59375 z m 0,-14.287109 v 8.754883 h 48.71583 v -8.754883 z m 48.71583,-5.532227 v -8.808594 h -48.71583 v 8.808594 z m -5.69336,52.0458986 q 3.81347,2.631836 8.00293,3.86718752 -2.63184,9.45312498 -5.3711,11.76269488 -2.63183,2.739258 -10.7959,3.276368 -5.15625,0.322265 -11.87011,0.322265 -6.60645,0 -10.25879,-0.429687 -5.69336,-0.53711 -7.46582,-2.84668 -1.98731,-2.0947265 -1.87989,-7.9492187 v -7.5732422 q 0,-4.7265625 -0.64453,-11.1181641 l 8.05664,1.342773 q 1.28907,0.214844 1.28907,0.751954 0.10742,0.537109 -0.9668,1.772461 -1.55762,1.557617 -1.55762,7.2509761 v 6.8212891 q -0.0537,0.4833984 -0.0537,1.0205078 0,4.5654297 5.42481,4.3505859 5.53222,0.4833985 11.01074,0.4833985 5.53222,0 7.94922,-0.3759766 5.80078,-0.7519531 7.25097,-3.0615234 1.66504,-1.8798828 1.87989,-9.6679688 z m -25.67383,-10.6884766 5.10254,-4.404297 q 7.03613,6.606445 13.2666,13.3203127 l -5.3711,4.9414062 q -5.04882,-7.4658203 -12.99804,-13.8574219 z m 32.01172,5.048828 5.10254,-4.941406 q 8.54003,9.0234374 17.13378,19.3896484 l -5.80078,4.8339844 Q 860.39551,-1.8798828 851.15723,-10.473633 Z"
         id="path68" />
    </g>
    <path
       d="m 2205.08,1341.5 v 107 h -9.16 v -107 z m 9.17,102.42 -13.75,27.5 -13.75,-27.5 z"
       id="path21" />
    <path
       d="m 2205.08,1679.38 v 82.5 l -4.58,-4.58 h 602.19 l -4.59,4.58 V 1060.5 l 4.59,4.58 h -571.02 v -9.16 h 575.6 v 710.55 h -611.35 v -87.09 z m 31.17,-605.13 -27.5,-13.75 27.5,-13.75 z"
       id="path23" />
    <path
       id="rect25"
       style="stroke:#000000;stroke-width:9.16667;stroke-miterlimit:8"
       d="m 2192.5,1052.5 h 16.0002 v 16.9999 H 2192.5 Z" />
  </g>
</svg>
